<svg xmlns="http://www.w3.org/2000/svg" version="1.1" xmlns:xlink="http://www.w3.org/1999/xlink" xmlns:svgjs="http://svgjs.dev/svgjs" width="100%" height="100%" viewBox="0 0 1000 600"><rect width="1000" height="600" x="0" y="0" fill="#84596b"/><g><rect width="333.3333333333333" height="333.3333333333333" rx="13.333333333333334" ry="13.333333333333334" y="242.45083476211875" fill="#440d0f" transform="matrix(0.5675919413030115,0,0,0.5675919413030116,0,67.78818706002947)" x="220.22853088378906"/><path d="M283.03305459269416 462.06971946250036L283.03305459269416 462.06971946250036Q271.5901734889585 462.06971946250036 271.5901734889585 450.6268383587647L271.5901734889585 450.6268383587647Q271.5901734889585 445.8300750678048 273.67069732600135 439.8196728719032L273.67069732600135 439.8196728719032Q276.7914830815656 430.65958875603405 283.1486392503076 420.0546964199962Q289.4768992546463 409.420907919555 296.15191323182546 399.65400435121495L296.15191323182546 399.65400435121495L288.6389104869485 399.65400435121495Q286.9918291159562 399.65400435121495 286.0382556906449 398.49815777508Q285.113578429737 397.3712073633485 285.113578429737 395.8975029787765L285.113578429737 395.8975029787765Q285.113578429737 394.65496790943143 286.0382556906449 393.5280174976999Q286.9918291159562 392.372170921565 288.6389104869485 392.372170921565L288.6389104869485 392.372170921565L301.3532228244326 392.372170921565Q303.63601981229897 389.4536583168243 305.5142704985182 386.65073036969716Q307.3636250203341 383.84780242257 309.2418757065533 381.13156296865293L309.2418757065533 381.13156296865293Q312.160388311294 373.64745638817936 316.43702064299316 366.77016926017666Q320.68475681028895 359.92177829657726 326.92632832141754 355.7607306224916L326.92632832141754 355.7607306224916Q327.9665902399389 355.1250150056174 328.8045790076368 355.1250150056174L328.8045790076368 355.1250150056174Q330.4805565430324 355.1250150056174 331.7230916123774 356.6854078833995Q332.9656266817225 358.24580076118167 332.9656266817225 360.12405144740086L332.9656266817225 360.12405144740086Q332.9656266817225 361.5688596675695 331.92536476320106 363.24483720296513L331.92536476320106 363.24483720296513Q331.28964914632684 364.082825970663 327.9665902399389 368.44614679557225Q324.6435313335511 372.80946762048154 320.07793735781814 379.1666237892236Q315.4834472176818 385.4948837935623 310.48441077589837 392.372170921565L310.48441077589837 392.372170921565L330.4805565430324 392.372170921565Q332.32991106484826 392.372170921565 333.167899832546 393.5280174976999Q334.0058886002439 394.65496790943143 334.0058886002439 395.8975029787765L334.0058886002439 395.8975029787765Q334.0058886002439 397.3712073633485 333.167899832546 398.49815777508Q332.32991106484826 399.65400435121495 330.4805565430324 399.65400435121495L330.4805565430324 399.65400435121495L305.5142704985182 399.65400435121495L303.63601981229897 402.5725169559556Q301.7577691260798 405.2598602454693 298.11685241125474 411.2991586057742Q294.4759356964298 417.33845696607915 290.4304726799576 424.6202903957291Q286.356113499082 431.9021238253791 283.55318555195487 438.66382629576833Q280.75025760482765 445.4255287661576 280.75025760482765 449.7888495910669L280.75025760482765 449.7888495910669Q280.75025760482765 454.990159183674 285.113578429737 454.990159183674L285.113578429737 454.990159183674Q288.6389104869485 454.990159183674 295.83405542338835 451.5515156196726Q303.00030419542475 448.14176822007465 310.07986447425117 442.1024698597697L310.07986447425117 442.1024698597697Q314.24091214833686 438.5482416381549 317.76624420554833 434.61836327929615Q321.32047242716317 430.65958875603405 324.44125818272744 427.3365298496462L324.44125818272744 427.3365298496462Q325.27924695042526 426.29626793112476 326.5217820197703 426.29626793112476L326.5217820197703 426.29626793112476Q327.5620439382917 426.29626793112476 328.4867211991997 427.42321834285633Q329.44029462451095 428.5790649189912 329.44029462451095 430.2261462899835L329.44029462451095 430.2261462899835Q329.44029462451095 432.1043969762027 328.40003270598953 433.34693204554776L328.40003270598953 433.34693204554776Q325.27924695042526 437.7391490348604 319.7600795493811 443.0271471206776Q314.24091214833686 448.34404137089825 310.07986447425117 451.4648271264625L310.07986447425117 451.4648271264625Q302.162315427727 457.27295617154044 293.0311274762612 460.1914687762811L293.0311274762612 460.1914687762811Q287.39637541760345 462.06971946250036 283.03305459269416 462.06971946250036ZM347.32702039019875 472.4723386477146L347.32702039019875 472.4723386477146Q334.8438773679417 472.4723386477146 329.209125309284 467.15544439749397Q323.6032694150297 461.86744631167676 323.6032694150297 455.19243233449765L323.6032694150297 455.19243233449765Q323.6032694150297 448.34404137089825 328.92016366525024 442.5070161614169Q334.20816175106745 436.698887116339 343.57051901776026 436.698887116339L343.57051901776026 436.698887116339Q346.08448532085373 436.698887116339 349.205271076418 437.3057065688098L349.205271076418 437.3057065688098Q350.8523524474102 437.50797971963345 351.80592587272156 438.7794109533818Q352.73060313362953 440.02194602272687 352.73060313362953 441.2644810920719L352.73060313362953 441.2644810920719Q352.73060313362953 443.98072054598896 349.81209052888886 443.98072054598896L349.81209052888886 443.98072054598896Q348.77182861036744 443.98072054598896 347.41370888340884 443.74955123076194Q346.08448532085373 443.54727807993834 345.0442234023323 443.54727807993834L345.0442234023323 443.54727807993834Q339.00492504202737 443.54727807993834 335.2484236695889 447.30377945237683Q331.5208184615538 451.0313846604119 331.5208184615538 455.4236016497246L331.5208184615538 455.4236016497246Q331.5208184615538 459.1512068577597 335.04615051876533 462.06971946250036Q338.5714825759768 464.98823206724103 346.8935779241482 464.98823206724103L346.8935779241482 464.98823206724103Q358.13418587706025 464.98823206724103 367.29426999292946 460.6249112423317Q376.4543541087986 456.232694253019 384.0540453468857 449.06644548098257Q391.6248404205694 441.9001967089461 397.9819965893114 433.5781013607747Q404.33915275805344 425.25600601260334 409.9450086523078 417.54073011690275L409.9450086523078 417.54073011690275L419.105092768177 404.65304079299847Q429.9122582550384 389.2513851660007 441.268450865564 374.1675873474401Q452.5957473116862 359.08378952887944 463.4029127985476 348.6811703436652L463.4029127985476 348.6811703436652Q458.43277252116746 347.6409084251438 452.3934741608625 347.0051928082696Q446.3541758005575 346.39837335579875 439.2746155217312 346.39837335579875L439.2746155217312 346.39837335579875Q420.9833434543962 346.39837335579875 405.6683763206086 350.2415632214474Q390.3823053512243 354.084753087096 378.93942424748866 360.3263245982245Q367.49654314375306 366.56789610935306 360.4169828649267 373.64745638817936Q353.3663187505037 380.7270166670057 351.28579491346085 387.17086132895787L351.28579491346085 387.17086132895787Q349.81209052888886 391.7364553046908 349.81209052888886 395.8975029787765L349.81209052888886 395.8975029787765Q349.81209052888886 402.5725169559556 353.97313820297455 405.8955758623435Q358.13418587706025 409.21863476873136 364.80919985423935 409.21863476873136L364.80919985423935 409.21863476873136Q371.2530445161915 409.21863476873136 379.66182835757303 405.57771805390644Q388.09950836335787 401.9368013390814 396.7394615199664 393.9325637993471Q405.37941467657487 385.92832625961285 412.43007879099787 373.24291008653216L412.43007879099787 373.24291008653216Q413.4703407095193 371.3646594003129 415.78203386178916 371.3646594003129L415.78203386178916 371.3646594003129Q418.9028196173534 371.3646594003129 418.9028196173534 374.4854451558772L418.9028196173534 374.4854451558772Q418.9028196173534 375.7279802252222 418.46937715130275 376.36369584209643L418.46937715130275 376.36369584209643Q410.580724269182 390.29164708452214 400.9871976872622 399.24945804956775Q391.42256726974574 408.17837285020994 381.85793685222933 412.45500518190914Q372.2933064347129 416.702741349205 363.97121108654153 416.702741349205L363.97121108654153 416.702741349205Q354.4065806690251 416.702741349205 348.3672823087202 411.4147432633877Q342.3279839484153 406.0978490131671 342.3279839484153 396.3309454448271L342.3279839484153 396.3309454448271Q342.3279839484153 391.33190900304356 344.2062346346345 385.090337491915L344.2062346346345 385.090337491915Q346.69130477332453 376.97051529456724 354.69554231305887 368.8506930972195Q362.7286760171965 360.7597670642751 375.29850753266373 353.8824799362723Q387.89723521253427 347.0051928082696 404.1079834428265 342.95972979179743Q420.34762783752205 338.9142667753252 439.2746155217312 338.9142667753252L439.2746155217312 338.9142667753252Q448.63697278842403 338.9142667753252 456.43893717733476 339.9545286938466Q464.2409015662454 340.99479061236804 470.2801999265503 342.8441451341839L470.2801999265503 342.8441451341839Q475.4815095191575 338.6830974600982 480.56723445415105 336.4003004722318Q485.681855553548 334.1175034843653 490.44972268010457 334.1175034843653L490.44972268010457 334.1175034843653Q492.5302465171474 334.1175034843653 493.68609309328235 335.36003855371035Q494.84193966941723 336.6025736230554 494.84193966941723 338.0762780076274L494.84193966941723 338.0762780076274Q494.84193966941723 340.56134814631747 491.9234270646766 340.56134814631747L491.9234270646766 340.56134814631747Q486.5198443212459 340.56134814631747 478.8045684255453 345.9649308897482L478.8045684255453 345.9649308897482Q488.1669256922381 350.35714787906085 492.4435580239373 356.800992541013Q496.6912941912331 363.24483720296513 496.6912941912331 370.3243974817915L496.6912941912331 370.3243974817915Q496.6912941912331 378.01077721308866 491.9234270646766 385.81274160199933Q487.12666377371664 393.61470599091 478.4000221238981 399.97186215965206Q469.64448430967616 406.30012216399075 457.7970569042933 409.9410388788157Q445.9496294989103 413.5819555936407 431.99278209208126 412.97513614116986L431.99278209208126 412.97513614116986Q432.4262245581319 418.78326518624783 434.3911637375612 428.3767917681676Q436.3561029169906 437.941422185684 439.91033113860544 448.02618356246114Q443.4356631958169 458.11094493923827 448.4346996376004 465.82622083493885L448.4346996376004 465.82622083493885Q452.3934741608625 471.63434988001677 457.59478375346964 474.43727782714393Q462.79609334607676 477.2691019386745 468.1996760895075 477.2691019386745L468.1996760895075 477.2691019386745Q476.7240445885025 477.2691019386745 484.12146267576594 471.83662303084037Q491.489984598626 466.43304028740965 494.84193966941723 457.70639863759106L494.84193966941723 457.70639863759106Q495.6510322727117 455.4236016497246 497.96272542498156 455.4236016497246L497.96272542498156 455.4236016497246Q499.8120799467974 455.4236016497246 501.28578433136937 456.86840986989324Q502.7305925515381 458.31321809006187 501.89260378384023 460.3937419271047L501.89260378384023 460.3937419271047Q499.4075336451502 467.0687559042839 494.0906393949296 472.4723386477146Q488.80264130911235 477.8759213911453 481.8386656878995 480.9967071467096Q474.8457939022832 484.11749290227385 467.5639604726333 484.11749290227385L467.5639604726333 484.11749290227385Q460.28212704298335 484.11749290227385 453.52042457259404 480.67884933827247Q446.75872210220484 477.2691019386745 441.35513935877407 469.3515528921503L441.35513935877407 469.3515528921503Q435.74928346451975 460.82718439315533 431.99278209208126 450.106707399504Q428.2651768840462 439.38623040585264 426.38692619782694 428.9836112206384Q424.50867551160775 418.5809920354242 424.3064023607841 411.2991586057742L424.3064023607841 411.2991586057742L419.30736591900063 418.3787188846006Q412.2278056401742 428.5790649189912 404.7436990597007 438.25927999412113Q397.2595924792271 447.91059890484763 388.7352239802321 455.7125632937583Q380.18195931683374 463.51452768266904 370.01050944684647 467.99343316519185Q359.81016341245584 472.4723386477146 347.32702039019875 472.4723386477146ZM429.07426948734064 404.45076764217487L429.07426948734064 404.45076764217487L428.6697231856934 405.05758709464567Q430.54797387191263 405.2598602454693 432.6284977089555 405.3754449030828Q434.7090215459983 405.4910295606963 436.3561029169906 405.4910295606963L436.3561029169906 405.4910295606963Q451.3532122423411 405.4910295606963 463.20063964772396 400.17413531047566Q475.07696321751024 394.8572410602551 482.0409388387231 386.76631502731067Q489.00491445993595 378.6464928299629 489.00491445993595 370.5266706326151L489.00491445993595 370.5266706326151Q489.00491445993595 364.9208147383608 485.04613993667385 359.80619363896375Q481.08736541341176 354.7204687039702 472.36072376359317 351.39740979758227L472.36072376359317 351.39740979758227Q460.28212704298335 361.8000289827965 449.35937689850834 376.36369584209643Q438.43662675403345 390.92736270139636 429.07426948734064 404.45076764217487Z " fill="#f5f5f5" transform="matrix(0.5675919413030115,0,0,0.5675919413030116,0,67.78818706002947)"/><path d="M689.5595938933104 484.11749778605963L689.5595938933104 484.11749778605963Q671.1922476430127 484.11749778605963 659.57093288588 477.99504903596045Q647.9212734586079 471.87260028586127 642.4224074515744 462.17872309820416Q636.8951967744015 452.48484591054705 636.8951967744015 441.88393927843083L636.8951967744015 441.88393927843083Q636.8951967744015 432.0766834102164 641.2035866355824 422.69459759409216Q645.4836318266239 413.31251177796787 653.3351054552234 406.45310160424566Q661.1865790838228 399.62203610066274 672.2126557680292 397.18439446867876L672.2126557680292 397.18439446867876Q672.6094811499802 397.18439446867876 672.836238511095 397.0710157881214Q673.0346512020703 396.98598177770333 673.2330638930458 396.98598177770333L673.2330638930458 396.98598177770333Q674.877054761128 396.98598177770333 675.8974628861445 398.09142391313793Q676.9178710111611 399.2252107187119 676.9178710111611 400.84085691665473L676.9178710111611 400.84085691665473Q676.9178710111611 403.9020812917043 673.8566466361115 404.7240767257454L673.8566466361115 404.7240767257454Q664.4462161498479 406.7648929757785 657.9269420177977 412.29210365295137Q651.4076678857477 417.7909696599849 648.0346521391652 425.1322392260761Q644.6616363925829 432.47350879216725 644.6616363925829 440.4383611013241L644.6616363925829 440.4383611013241Q644.6616363925829 449.4236215354975 649.3668516357147 457.7002652161871Q654.0437222087071 465.94856422673746 663.9360120873396 471.16398353237753Q673.8566466361115 476.35105816787825 689.5595938933104 476.35105816787825L689.5595938933104 476.35105816787825Q704.2421330254926 476.35105816787825 716.2035838242977 470.85219216084465Q728.1366899529633 465.35332615381117 737.717188460063 456.0562743481049Q747.3260316373019 446.75922254239873 755.375917956877 434.9394950942906Q763.4258042764518 423.091422976043 770.3702484605919 410.1379087223609Q777.3146926447323 397.18439446867876 783.7489327663643 384.7410842775049Q790.1831728879963 372.2694294161917 796.5040343290711 361.866935475051L796.5040343290711 361.866935475051Q794.6616307700135 361.27169740212463 793.1310185824887 360.5347359785016Q791.6004063949638 359.82611922501786 790.1831728879963 359.429293843067L790.1831728879963 359.429293843067Q777.7115180266833 354.52566590895975 764.8713824535585 350.8408587908445Q752.0029022102945 347.1843963428686 738.5391838941041 347.1843963428686L738.5391838941041 347.1843963428686Q736.8951930260218 347.1843963428686 735.0811341371036 347.2694303532866Q733.238730578046 347.382809033844 731.3963270189884 347.5812217248195L731.3963270189884 347.5812217248195Q717.5074386507076 348.80004254081143 707.7285274526325 355.5460740339763Q697.921271584418 362.2921055271412 692.8192309593354 371.3623999717326Q687.7171903342528 380.432694416324 687.7171903342528 388.8227167775711L687.7171903342528 388.8227167775711Q687.7171903342528 396.75922441658855 692.6208182683599 402.28643509376144Q697.5244462024673 407.785301100795 707.5301147616572 407.785301100795L707.5301147616572 407.785301100795Q716.4870305256911 407.785301100795 723.9416787723396 402.68326047571236Q731.3963270189884 397.5812198506296 736.3849889635135 390.1265716039811Q741.4019955781782 382.70026802747185 743.0176417761211 375.33065379124133L743.0176417761211 375.33065379124133Q743.6412245191866 372.49618677730655 746.504036203261 372.49618677730655L746.504036203261 372.49618677730655Q748.1196824012038 372.49618677730655 749.3668478873351 373.6016289127411Q750.585668703327 374.73541571831504 750.1604986512368 376.97464465932353L750.1604986512368 376.97464465932353Q748.9416778352447 383.09709340942277 745.3702493976868 389.6163675414728Q741.798820960129 396.16398634366226 736.3849889635135 401.9746437222286Q730.9995016370374 407.785301100795 723.9416787723396 411.35672953835285Q716.9122005777814 414.9281579759107 708.748935577649 415.1265706668862L708.748935577649 415.1265706668862Q694.4632218274176 415.5517407189764 687.6321563238347 407.785301100795Q680.7727461501124 400.04720615275295 680.7727461501124 389.0211294685465L680.7727461501124 389.0211294685465Q680.7727461501124 381.25468985036514 684.0607278862768 373.20480353079023Q687.3203649523018 365.12657254107603 693.5278477128192 357.98371566596023Q699.7636751434757 350.8408587908445 709.1457609596 346.05060953729463Q718.5278467757241 341.26036028374483 730.7727442759226 340.2399521587283L730.7727442759226 340.2399521587283Q733.0403178870704 340.0415394677529 735.279546828079 339.9281607871955Q737.5187757690876 339.8431267767774 739.5595920191206 339.8431267767774L739.5595920191206 339.8431267767774Q756.7081174534262 339.8431267767774 771.7024479571414 344.8317887213027Q786.6967784608566 349.820450665828 800.7840795201125 355.5460740339763L800.7840795201125 355.5460740339763Q805.0641247111541 349.6220379748525 810.6763693987452 345.73881816576187Q816.2886140863361 341.8839430268105 822.0142374544844 341.8839430268105L822.0142374544844 341.8839430268105Q826.0958699545506 341.8839430268105 829.3555070205755 343.92475927684353L829.3555070205755 343.92475927684353Q831.1979105796331 345.1435800928355 831.1979105796331 346.98598365189315L831.1979105796331 346.98598365189315Q831.1979105796331 348.601629849836 830.1775024546166 349.9338293463854Q829.1570943296001 351.26602884293476 827.5131034615181 351.26602884293476L827.5131034615181 351.26602884293476Q826.9178653885917 351.26602884293476 826.4076613260834 350.9542374714019Q825.8974572635752 350.6424460998691 825.2738745205095 350.44403340889363L825.2738745205095 350.44403340889363Q824.253466395493 349.6220379748525 822.2126501454597 349.6220379748525L822.2126501454597 349.6220379748525Q819.3498384613856 349.6220379748525 815.7784100238277 351.6628542248856Q812.2069815862699 353.7036704749187 808.3237617771792 358.60729840902593L808.3237617771792 358.60729840902593Q817.7341922634428 362.06534816602635 827.0028993990097 364.9281598501006Q836.2999512047159 367.79097153417473 846.078862402791 368.41455427724037L846.078862402791 368.41455427724037Q847.9212659618486 368.41455427724037 851.6060730799641 367.79097153417473Q855.2625355279399 367.1673887911091 858.5505172641042 365.55174259316624Q861.8101543301293 363.90775172508404 862.20697971208 361.27169740212463L862.20697971208 361.27169740212463Q861.8101543301293 360.02453191599335 861.8101543301293 359.62770653404243L861.8101543301293 359.62770653404243Q861.8101543301293 356.7648948499683 865.0697913961544 356.7648948499683L865.0697913961544 356.7648948499683Q866.7137822642364 356.7648948499683 868.1310157712039 357.98371566596023Q869.5482492781714 359.23088115209157 869.5482492781714 361.4701100931001L869.5482492781714 361.4701100931001Q869.5482492781714 363.31251365215775 868.3294284621793 365.75015528414167L868.3294284621793 365.75015528414167Q865.4666167781052 371.0506086001998 860.0811294516291 373.28983754120827Q854.6672974550136 375.5574111523561 847.7228532708732 375.5574111523561L847.7228532708732 375.5574111523561Q837.518772020708 375.5574111523561 825.5856658920422 371.98598271479824Q813.6525597633768 368.41455427724037 804.0437165861376 364.7297471591251L804.0437165861376 364.7297471591251Q796.9008597110219 375.95423653430703 790.1831728879963 389.0211294685465Q783.4371413948315 402.088022402786 776.1809058391584 415.43836203841903Q768.9530149536247 428.81704634419134 760.4779585819595 441.1469778548078Q752.0029022102945 453.5052540355636 741.798820960129 463.19913122322066Q731.5947397099637 472.89300841087777 718.7546041368389 478.5052530984687Q705.8861238935749 484.11749778605963 689.5595938933104 484.11749778605963ZM797.5244424540876 457.98371191758065L797.5244424540876 457.98371191758065Q794.2648053880625 457.98371191758065 792.6208145199803 455.7444829765721Q790.9768236518983 453.5052540355636 790.9768236518983 450.24561696953856L790.9768236518983 450.24561696953856Q790.9768236518983 444.94516365348045 793.8396353359724 439.21954028533213L793.8396353359724 439.21954028533213Q796.7024470200465 433.2955042262084 800.7840795201125 427.37146816708463Q804.8657120201788 421.47577677810017 809.7693399542859 415.1265706668862L809.7693399542859 415.1265706668862Q810.7897480793026 413.9077498508942 812.7171856487782 410.8465254758446Q814.6729678883933 407.785301100795 816.2886140863361 404.52566403477Q817.9326049544184 401.26602696874494 817.7341922634428 399.4236234096873L817.7341922634428 399.4236234096873Q817.507434902328 395.9655736526868 819.1514257704102 394.20820410404724Q820.7954166384925 392.479179225547 822.8362328885255 392.479179225547L822.8362328885255 392.479179225547Q824.8770491385585 392.479179225547 825.8974572635752 394.1231700936292L825.8974572635752 394.1231700936292Q827.1162780795671 395.9655736526868 827.1162780795671 398.6016279756462L827.1162780795671 398.6016279756462Q827.1162780795671 401.46443965972037 825.1604958399521 405.6594508403439Q823.2330582704765 409.8261173508281 818.5278430273447 416.1469787919027L818.5278430273447 416.1469787919027Q814.8713805793686 421.05060672600996 810.4779567077696 426.6628514136009Q806.0845328361709 432.2750961011918 803.0233084611211 437.57554941724993Q799.9620840860716 442.9043474034474 799.9620840860716 446.5608098514233L799.9620840860716 446.5608098514233Q799.9620840860716 449.22520884452206 802.20131302708 449.22520884452206L802.20131302708 449.22520884452206Q803.6468912041869 449.22520884452206 806.2829455271462 448.00638802853007L806.2829455271462 448.00638802853007Q809.5709272633105 446.36239716044787 815.381584641877 441.65718191731605Q821.1922420204432 436.98031134432364 827.6264821420752 430.94289660464244Q834.0607222637075 424.93382653510065 839.4462095901836 419.20820316695233Q844.8600415867991 413.51092446894336 847.3260278889225 410.2512874029183L847.3260278889225 410.2512874029183Q848.5448487049143 408.4088838438607 850.387252263972 408.4088838438607L850.387252263972 408.4088838438607Q851.8044857709394 408.4088838438607 853.0233065869313 409.42929196887724Q854.2421274029234 410.44970009389374 854.2421274029234 412.0653462918366L854.2421274029234 412.0653462918366Q854.2421274029234 412.88734172587766 853.6468893299971 413.9077498508942L853.6468893299971 413.9077498508942Q852.428068514005 416.1469787919027 850.387252263972 420.22861129196883Q848.346436013939 424.310243792035 846.3906537743239 429.01545903516677Q844.4632162048481 433.7206742782986 843.1310167082988 437.6889280978073Q841.7988172117493 441.65718191731605 841.7988172117493 443.69799816734917L841.7988172117493 443.69799816734917Q841.7988172117493 445.965571778497 843.2443953888562 445.965571778497L843.2443953888562 445.965571778497Q844.2648035138727 445.965571778497 845.7954157013976 444.83178497292306Q847.3260278889225 443.69799816734917 848.5448487049143 442.9043474034474L848.5448487049143 442.9043474034474Q853.6468893299971 438.82271490338127 858.0403132015961 434.23087834080684Q862.4053924030557 429.63904177823247 866.0901995211709 425.5574092781663L866.0901995211709 425.5574092781663Q866.9121949552118 424.5370011531498 868.1310157712039 424.5370011531498L868.1310157712039 424.5370011531498Q869.1514238962204 424.5370011531498 870.0584533406795 425.6424432885844Q870.993827455278 426.7762300941583 870.993827455278 428.39187629210113L870.993827455278 428.39187629210113Q870.993827455278 430.23427985115876 869.9734193302615 431.45310066715075L869.9734193302615 431.45310066715075Q866.7137822642364 435.76149052833165 861.3849842780392 440.94856516383237Q856.084530961981 446.16398446947244 852.0028984619148 449.22520884452206L852.0028984619148 449.22520884452206Q849.3668441389555 451.0676124035797 845.7954157013976 452.7966372820799Q842.2239872638397 454.52566216058017 839.16276288879 454.52566216058017L839.16276288879 454.52566216058017Q836.4983638956915 454.52566216058017 834.9677517081666 452.99504997305536Q833.4371395206417 451.46443778553055 833.4371395206417 447.58121797643986L833.4371395206417 447.58121797643986Q833.4371395206417 444.3215809104148 834.5709263262156 440.0415357193732Q835.6763684616503 435.76149052833165 837.3203593297324 431.2546879761753L837.3203593297324 431.2546879761753Q830.3759151455922 438.19913216031557 821.7024460829516 445.1435763444559Q813.028977020311 452.0880205285962 805.8861201451953 455.54607028559667L805.8861201451953 455.54607028559667Q800.7840795201125 457.98371191758065 797.5244424540876 457.98371191758065ZM929.3555032721961 469.83178403582815L929.3555032721961 469.83178403582815Q917.1106057719976 469.83178403582815 911.6117397649641 464.6163647301881Q906.0845290877912 459.42929009468736 906.0845290877912 452.88167129249797L906.0845290877912 452.88167129249797Q906.0845290877912 446.16398446947244 911.2999483934311 440.4383611013241Q916.4870230289318 434.7410824033151 925.6706961540808 434.7410824033151L925.6706961540808 434.7410824033151Q928.136682456204 434.7410824033151 931.1979068312537 435.33632047624144L931.1979068312537 435.33632047624144Q932.8135530291963 435.53473316721687 933.7489271437948 436.78189865334815Q934.6559565882542 438.0007194693402 934.6559565882542 439.21954028533213L934.6559565882542 439.21954028533213Q934.6559565882542 441.88393927843083 931.7931449041798 441.88393927843083L931.7931449041798 441.88393927843083Q930.7727367791633 441.88393927843083 929.4688819527535 441.65718191731605Q928.136682456204 441.4587692263406 927.1162743311875 441.4587692263406L927.1162743311875 441.4587692263406Q921.1922382720638 441.4587692263406 917.5074311539483 445.1435763444559Q913.8509687059725 448.8000387924318 913.8509687059725 453.10842865361275L913.8509687059725 453.10842865361275Q913.8509687059725 456.76489110158866 917.309018462973 459.6277027856628Q920.7954128901129 462.490514469737 928.9586778902451 462.490514469737L928.9586778902451 462.490514469737Q939.9564099043123 462.490514469737 948.9416703384854 458.2104692786954Q957.926930772659 453.90207941751447 965.3815790193075 446.8726012229561Q972.836227265956 439.84312302839777 979.0437100264733 431.6798580282655Q985.2795374571299 423.51659302813323 990.7784034641636 415.9485661009273L990.7784034641636 415.9485661009273L999.7636638983367 403.306843218778Q1010.3645705304532 388.1991340345054 1021.504025895217 373.40321622176566Q1032.6151365898413 358.60729840902593 1043.244387892097 348.40321715886057L1043.244387892097 348.40321715886057Q1038.3407599579898 347.382809033844 1032.416723898866 346.7592262907784Q1026.4926878397423 346.1639882178521 1019.5482436556019 346.1639882178521L1019.5482436556019 346.1639882178521Q1001.6060674573944 346.1639882178521 986.6117369536794 349.9338293463854Q971.5890617798248 353.7036704749187 960.3645724046428 359.82611922501786Q949.140083029461 365.9485679751171 942.2239835154601 372.8930121592574Q935.2795393313197 379.8374563433977 933.2387230812867 386.15831778447233L933.2387230812867 386.15831778447233Q931.7931449041798 390.63677566648937 931.7931449041798 394.7184081665555L931.7931449041798 394.7184081665555Q931.7931449041798 401.26602696874494 935.8747774042461 404.52566403477Q939.9564099043123 407.785301100795 946.5040287065017 407.785301100795L946.5040287065017 407.785301100795Q952.8248901475763 407.785301100795 961.1015338282659 404.2138726632371Q969.3498328388162 400.64244422567924 977.8248892104814 392.7909705970798Q986.2999455821464 384.9394969684804 993.2443897662868 372.49618677730655L993.2443897662868 372.49618677730655Q994.2647978913033 370.6537832182489 996.5040268323119 370.6537832182489L996.5040268323119 370.6537832182489Q999.5652512073614 370.6537832182489 999.5652512073614 373.7150075932985L999.5652512073614 373.7150075932985Q999.5652512073614 374.93382840929047 999.1400811552712 375.5574111523561L999.1400811552712 375.5574111523561Q991.4019862072291 389.21954215952195 982.019900391105 398.0063899027199Q972.6094699048413 406.7648929757785 963.2273840887171 410.959904156402Q953.8452982725928 415.1265706668862 945.6820332724606 415.1265706668862L945.6820332724606 415.1265706668862Q936.2999474563362 415.1265706668862 930.3759113972126 409.9394960313855Q924.4518753380887 404.7240767257454 924.4518753380887 395.1435782186457L924.4518753380887 395.1435782186457Q924.4518753380887 390.23995028453845 926.2942788971463 384.11750153443927L926.2942788971463 384.11750153443927Q928.7319205291303 376.15264922528246 936.6117388278692 368.1877969161256Q944.4632124564685 360.2512892771081 956.7931439670851 353.50525778394325Q969.1514201478408 346.7592262907784 985.0811247661545 342.79097247126964Q1000.9824847143288 338.8227186517609 1019.5482436556019 338.8227186517609L1019.5482436556019 338.8227186517609Q1028.7319167807507 338.8227186517609 1036.3849777183746 339.8431267767774Q1044.0380386559987 340.86353490179397 1049.9620747151225 342.67759379071225L1049.9620747151225 342.67759379071225Q1055.064115340205 338.59596129064613 1060.0811219548698 336.3567323496376Q1065.069783899395 334.1175034086291 1069.774999142527 334.1175034086291L1069.774999142527 334.1175034086291Q1071.81581539256 334.1175034086291 1072.9212575279946 335.336324224621Q1074.0550443335685 336.555145040613 1074.0550443335685 338.0007232177198L1074.0550443335685 338.0007232177198Q1074.0550443335685 340.43836484970376 1071.1922326494941 340.43836484970376L1071.1922326494941 340.43836484970376Q1065.8917793334363 340.43836484970376 1058.3237524062301 345.73881816576187L1058.3237524062301 345.73881816576187Q1067.5074255313789 350.04720802694277 1071.7024367120025 356.3680694680174Q1075.8974478926261 362.68893090909205 1075.8974478926261 369.63337509323236L1075.8974478926261 369.63337509323236Q1075.8974478926261 377.17305735029896 1071.1922326494941 384.82611828792295Q1066.4870174063624 392.479179225547 1057.9269270242794 398.71500665620357Q1049.3668366421962 404.92248941672085 1037.717177214924 408.4939178542787Q1026.0958624577913 412.0653462918366 1012.4053867804862 411.47010821891024L1012.4053867804862 411.47010821891024Q1012.8305568325763 417.16738691691927 1014.757994402052 426.57781740318285Q1016.713776641667 435.9599032193071 1020.1718263986675 445.8521930979396Q1023.629876155668 455.7444829765721 1028.5335040897753 463.3125099037781L1028.5335040897753 463.3125099037781Q1032.416723898866 469.009788601787 1037.5187645239487 471.7592216053039Q1042.6208051490312 474.53699927895997 1047.9212584650893 474.53699927895997L1047.9212584650893 474.53699927895997Q1056.2829361561971 474.53699927895997 1063.5391717118703 469.2082012927625Q1070.7954072675434 463.9077479767044 1074.0550443335685 455.34765759462124L1074.0550443335685 455.34765759462124Q1074.8770397676094 453.10842865361275 1077.116268708618 453.10842865361275L1077.116268708618 453.10842865361275Q1078.9586722676756 453.10842865361275 1080.3759057746431 454.52566216058017Q1081.7931392816106 455.94289566754753 1080.9994885177086 457.98371191758065L1080.9994885177086 457.98371191758065Q1078.5335022155855 464.53133071977004 1073.3464275800848 469.83178403582815Q1068.1310082744446 475.13223735188626 1061.2999427708617 478.1934617269359Q1054.468877267279 481.2546861019855 1047.3260203921632 481.2546861019855L1047.3260203921632 481.2546861019855Q1040.1831635170474 481.2546861019855 1033.5505107044398 477.881670355403Q1026.9178578918325 474.53699927895997 1021.5890599056349 466.77055966077853L1021.5890599056349 466.77055966077853Q1016.0901938986015 458.40888196967086 1012.4053867804862 447.8930093479727Q1008.7489243325101 437.3771367262745 1006.9065207734527 427.17305547610914Q1005.0641172143951 416.96897422594384 1004.8657045234195 409.8261173508281L1004.8657045234195 409.8261173508281L999.9620765893123 416.77056153496835Q993.017632405172 426.7762300941583 985.6763628390809 436.27169459083996Q978.3350932729895 445.73881441738223 969.9734155818819 453.3918753550062Q961.6117378907743 461.0449362926302 951.6060693315844 465.4383601642292Q941.6004007723943 469.83178403582815 929.3555032721961 469.83178403582815ZM1009.5709197665512 403.10843052780257L1009.5709197665512 403.10843052780257L1009.1457497144611 403.70366860072886Q1010.9881532735187 403.9020812917043 1013.0289695235517 404.0154599722617Q1015.069785773585 404.12883865281907 1016.713776641667 404.12883865281907L1016.713776641667 404.12883865281907Q1031.3963157738494 404.12883865281907 1043.0176305309822 398.913419347179Q1054.6672899582543 393.698000041539 1061.498355461837 385.76149240252147Q1068.32942096542 377.79664009336466 1068.32942096542 369.8317877842078L1068.32942096542 369.8317877842078Q1068.32942096542 364.33292177717425 1064.4462011563294 359.3159151625096Q1060.5913260173782 354.3272532179844 1052.0028909651555 351.06761615195927L1052.0028909651555 351.06761615195927Q1040.1831635170474 361.27169740212463 1029.4688782043738 375.5574111523561Q1018.7545928917 389.8431249025876 1009.5709197665512 403.10843052780257ZM1085.2795337087503 460.64811091067935L1085.2795337087503 460.64811091067935Q1078.9586722676756 460.64811091067935 1074.5652483960766 456.76489110158866Q1070.1718245244776 452.88167129249797 1070.1718245244776 443.30117278539825L1070.1718245244776 443.30117278539825Q1070.1718245244776 436.78189865334815 1073.5448402710601 427.99505091015027Q1076.9178560176426 419.20820316695233 1082.6151347156515 410.959904156402Q1088.3407580838 402.68326047571236 1095.2852022679401 397.26942847909686Q1102.201301781941 391.88394115262065 1109.3441586570568 391.88394115262065L1109.3441586570568 391.88394115262065Q1114.0493739001886 391.88394115262065 1116.4019815217546 395.22861222906374Q1118.7545891433206 398.6016279756462 1118.7545891433206 403.306843218778L1118.7545891433206 403.306843218778Q1118.7545891433206 410.2512874029183 1114.2477865911642 416.77056153496835Q1109.7693287091472 423.28983566701845 1102.9382632055642 427.37146816708463Q1096.0788530318418 431.45310066715075 1089.3611662088165 431.45310066715075L1089.3611662088165 431.45310066715075Q1083.8339555316436 431.45310066715075 1080.9994885177086 427.99505091015027L1080.9994885177086 427.99505091015027Q1079.3554976496266 432.0766834102164 1078.3350895246099 435.9599032193071Q1077.3146813995934 439.84312302839777 1077.3146813995934 443.30117278539825L1077.3146813995934 443.30117278539825Q1077.3146813995934 449.22520884452206 1079.8657017121348 451.57781646608794Q1082.4167220246761 453.90207941751447 1086.2999418337668 453.90207941751447L1086.2999418337668 453.90207941751447Q1090.9768124067593 453.90207941751447 1096.815814455465 451.46443778553055Q1102.6264718340315 449.02679615354657 1107.7285124591142 445.6537804069642Q1112.8305530841967 442.28076466038175 1115.2681947161807 440.0415357193732L1115.2681947161807 440.0415357193732Q1119.3498272162467 436.55514129223343 1123.1196683447802 432.3884747817492Q1126.9178541434528 428.1934636011257 1129.7523211573875 424.5370011531498L1129.7523211573875 424.5370011531498Q1130.772729282404 423.28983566701845 1132.0198947685353 423.28983566701845L1132.0198947685353 423.28983566701845Q1133.2387155845274 423.28983566701845 1134.1457450289865 424.4236224725924Q1135.081119143585 425.5574092781663 1135.081119143585 427.17305547610914L1135.081119143585 427.17305547610914Q1135.081119143585 428.6186336532159 1134.0607110185686 430.03586716018333L1134.0607110185686 430.03586716018333Q1130.772729282404 434.11749966024945 1125.9824800288543 439.3329189658895Q1121.1922307753046 444.51999360139024 1115.2681947161807 449.02679615354657L1115.2681947161807 449.02679615354657Q1112.0085576501556 451.662850476506 1106.906517025073 454.3272494696047Q1101.8044763999903 456.9633037925641 1096.1922317123992 458.8057073516217Q1090.5799870248084 460.64811091067935 1085.2795337087503 460.64811091067935ZM1088.935996156726 424.93382653510065L1088.935996156726 424.93382653510065Q1093.0176286567923 424.93382653510065 1097.8362225804815 422.26942754200195Q1102.6264718340315 419.63337321904254 1106.3963129625647 415.2399493474436Q1110.166154091098 410.8465254758446 1111.38497490709 405.7444848507619L1111.38497490709 405.7444848507619Q1111.6117322682048 405.34765946881106 1111.6117322682048 404.7240767257454Q1111.6117322682048 404.12883865281907 1111.6117322682048 403.70366860072886L1111.6117322682048 403.70366860072886Q1111.6117322682048 400.04720615275295 1108.947333275106 400.04720615275295L1108.947333275106 400.04720615275295Q1104.6672880840645 400.04720615275295 1099.9620728409327 403.1934645382206Q1095.2852022679401 406.3680675938276 1091.0901910873167 411.55514222932834Q1086.895179906693 416.77056153496835 1083.635542840668 422.8930102850676L1083.635542840668 422.8930102850676Q1084.4575382747091 423.51659302813323 1085.2795337087503 424.0267970906415Q1086.1015291427914 424.5370011531498 1086.895179906693 424.7354138441252L1086.895179906693 424.7354138441252Q1087.3203499587833 424.93382653510065 1087.9155880317096 424.93382653510065Q1088.5391707747754 424.93382653510065 1088.935996156726 424.93382653510065ZM1141.997218657586 459.00412004259715L1141.997218657586 459.00412004259715Q1133.4371282755028 459.00412004259715 1129.043704403904 454.7240748515556Q1124.6502805323048 450.444029660514 1124.6502805323048 443.69799816734917L1124.6502805323048 443.69799816734917Q1124.6502805323048 435.9599032193071 1127.824883587912 429.01545903516677Q1130.999486643519 422.07101485102646 1135.081119143585 416.1469787919027L1135.081119143585 416.1469787919027Q1140.9768105325695 407.58688840981955 1149.2534542132591 401.57781834027776Q1157.5300978939488 395.5404036005966 1166.4870136579827 395.5404036005966L1166.4870136579827 395.5404036005966Q1172.4110497171066 395.5404036005966 1174.650278658115 398.28983660411336Q1176.917852269263 401.0676142777695 1176.917852269263 405.14924677783563L1176.917852269263 405.14924677783563Q1176.917852269263 409.42929196887724 1175.0754487102054 414.0211285314516Q1173.2330451511477 418.612965094026 1170.9938162101391 421.2490194169854L1170.9938162101391 421.2490194169854Q1169.5482380330325 422.8930102850676 1167.9325918350896 422.8930102850676L1167.9325918350896 422.8930102850676Q1164.6729547690645 422.8930102850676 1164.6729547690645 420.0301986009934L1164.6729547690645 420.0301986009934Q1164.6729547690645 418.612965094026 1165.8917755850566 417.39414427803405L1165.8917755850566 417.39414427803405Q1166.912183710073 416.3737361530175 1168.4427958975978 412.57555035434484Q1169.9734080851226 408.80570922581154 1169.9734080851226 405.94289754173735L1169.9734080851226 405.94289754173735Q1169.9734080851226 403.10843052780257 1168.131004526065 402.8816731666878L1168.131004526065 402.8816731666878Q1167.5074217829995 402.68326047571236 1166.4870136579827 402.68326047571236L1166.4870136579827 402.68326047571236Q1162.4053811579167 402.68326047571236 1157.303340532834 405.8578635313193Q1152.2012999077513 409.00412191678697 1147.524429334759 414.10616254186965Q1142.8192140916271 419.20820316695233 1139.559577025602 424.93382653510065L1139.559577025602 424.93382653510065Q1136.8951780325033 429.4122844171177 1135.2795318345604 434.5143250422003Q1133.6355409664784 439.616365667283 1133.6355409664784 443.30117278539825L1133.6355409664784 443.30117278539825Q1133.6355409664784 447.18439259448894 1135.9881485880442 449.4236215354975Q1138.34075620961 451.662850476506 1142.8192140916271 451.662850476506L1142.8192140916271 451.662850476506Q1149.9620709667429 451.662850476506 1157.8135445953421 447.7796306674153Q1165.693362894081 443.92475552846395 1170.568646158049 439.84312302839777L1170.568646158049 439.84312302839777Q1174.650278658115 436.35672860125794 1178.1366730852549 432.58688747272464Q1181.5947228422554 428.81704634419134 1184.655947217305 425.5574092781663L1184.655947217305 425.5574092781663Q1185.477942651346 424.5370011531498 1186.696763467338 424.5370011531498L1186.696763467338 424.5370011531498Q1187.7171715923546 424.5370011531498 1188.652545706953 425.6424432885844Q1189.5595751514122 426.7762300941583 1189.5595751514122 428.39187629210113L1189.5595751514122 428.39187629210113Q1189.5595751514122 430.23427985115876 1188.5391670263957 431.45310066715075L1188.5391670263957 431.45310066715075Q1185.2795299603706 435.76149052833165 1179.9790766443125 440.94856516383237Q1174.650278658115 446.16398446947244 1170.568646158049 449.22520884452206L1170.568646158049 449.22520884452206Q1164.87136746004 453.3068413445882 1156.906515150883 456.1696530286623Q1148.9416628417264 459.00412004259715 1141.997218657586 459.00412004259715ZM1195.6820239015115 460.64811091067935L1195.6820239015115 460.64811091067935Q1189.3611624604368 460.64811091067935 1184.9677385888378 456.76489110158866Q1180.5743147172388 452.88167129249797 1180.5743147172388 443.30117278539825L1180.5743147172388 443.30117278539825Q1180.5743147172388 436.78189865334815 1183.9473304638211 427.99505091015027Q1187.3203462104036 419.20820316695233 1193.0176249084127 410.959904156402Q1198.743248276561 402.68326047571236 1205.6876924607013 397.26942847909686Q1212.6321366448415 391.88394115262065 1219.7749935199574 391.88394115262065L1219.7749935199574 391.88394115262065Q1224.4518640929498 391.88394115262065 1226.8044717145158 395.22861222906374Q1229.1570793360818 398.6016279756462 1229.1570793360818 403.306843218778L1229.1570793360818 403.306843218778Q1229.1570793360818 410.2512874029183 1224.6502767839254 416.77056153496835Q1220.1718189019082 423.28983566701845 1213.3407533983254 427.37146816708463Q1206.5096878947425 431.45310066715075 1199.7636564015775 431.45310066715075L1199.7636564015775 431.45310066715075Q1194.264790394544 431.45310066715075 1191.4019787104698 427.99505091015027L1191.4019787104698 427.99505091015027Q1189.7579878423876 432.0766834102164 1188.737579717371 435.9599032193071Q1187.7171715923546 439.84312302839777 1187.7171715923546 443.30117278539825L1187.7171715923546 443.30117278539825Q1187.7171715923546 449.22520884452206 1190.268191904896 451.57781646608794Q1192.8192122174373 453.90207941751447 1196.702432026528 453.90207941751447L1196.702432026528 453.90207941751447Q1201.4076472696597 453.90207941751447 1207.2183046482262 451.46443778553055Q1213.0289620267927 449.02679615354657 1218.1310026518752 445.6537804069642Q1223.233043276958 442.28076466038175 1225.670684908942 440.0415357193732L1225.670684908942 440.0415357193732Q1229.752317409008 436.55514129223343 1233.5505032076805 432.3884747817492Q1237.3203443362138 428.1934636011257 1240.1831560202882 424.5370011531498L1240.1831560202882 424.5370011531498Q1241.2035641453047 423.28983566701845 1242.4223849612965 423.28983566701845L1242.4223849612965 423.28983566701845Q1243.6412057772884 423.28983566701845 1244.5482352217477 424.4236224725924Q1245.4836093363463 425.5574092781663 1245.4836093363463 427.17305547610914L1245.4836093363463 427.17305547610914Q1245.4836093363463 428.6186336532159 1244.4632012113298 430.03586716018333L1244.4632012113298 430.03586716018333Q1241.2035641453047 434.11749966024945 1236.3849702216153 439.3329189658895Q1231.5947209680655 444.51999360139024 1225.670684908942 449.02679615354657L1225.670684908942 449.02679615354657Q1222.4110478429168 451.662850476506 1217.309007217834 454.3272494696047Q1212.2069665927513 456.9633037925641 1206.5947219051604 458.8057073516217Q1200.9824772175696 460.64811091067935 1195.6820239015115 460.64811091067935ZM1199.3668310196267 424.93382653510065L1199.3668310196267 424.93382653510065Q1203.448463519693 424.93382653510065 1208.2387127732427 422.26942754200195Q1213.0289620267927 419.63337321904254 1216.798803155326 415.2399493474436Q1220.5686442838592 410.8465254758446 1221.8158097699904 405.7444848507619L1221.8158097699904 405.7444848507619Q1222.0142224609658 405.34765946881106 1222.0142224609658 404.7240767257454Q1222.0142224609658 404.12883865281907 1222.0142224609658 403.70366860072886L1222.0142224609658 403.70366860072886Q1222.0142224609658 400.04720615275295 1219.3498234678673 400.04720615275295L1219.3498234678673 400.04720615275295Q1215.0697782768257 400.04720615275295 1210.3645630336937 403.1934645382206Q1205.6876924607013 406.3680675938276 1201.4926812800777 411.55514222932834Q1197.3260147695935 416.77056153496835 1194.0380330334292 422.8930102850676L1194.0380330334292 422.8930102850676Q1194.8600284674703 423.51659302813323 1195.6820239015115 424.0267970906415Q1196.5040193355526 424.5370011531498 1197.3260147695935 424.7354138441252L1197.3260147695935 424.7354138441252Q1197.7228401515445 424.93382653510065 1198.3464228946102 424.93382653510065Q1198.9416609675366 424.93382653510065 1199.3668310196267 424.93382653510065ZM1254.2421124094049 459.6277027856628L1254.2421124094049 459.6277027856628Q1243.0176230342229 459.6277027856628 1243.0176230342229 448.40321341048093L1243.0176230342229 448.40321341048093Q1243.0176230342229 443.69799816734917 1245.058439284256 437.8023067783647L1245.058439284256 437.8023067783647Q1248.1196636593056 428.81704634419134 1254.3554910899622 418.41455240305055Q1260.5913185206189 407.98371379177047 1267.1105926526689 398.40321528467075L1267.1105926526689 398.40321528467075L1259.7693230865775 398.40321528467075Q1258.1253322184955 398.40321528467075 1257.2183027740364 397.26942847909686Q1256.2829286594379 396.16398634366226 1256.2829286594379 394.7184081665555L1256.2829286594379 394.7184081665555Q1256.2829286594379 393.4995873505635 1257.2183027740364 392.39414521512896Q1258.1253322184955 391.260358409555 1259.7693230865775 391.260358409555L1259.7693230865775 391.260358409555L1272.2126332777516 391.260358409555Q1274.4518622187602 388.3975467254809 1276.2942657778176 385.6481137219641Q1278.1366693368755 382.8986807184473 1279.9790728959329 380.2342817253486L1279.9790728959329 380.2342817253486Q1282.8135399098678 372.8930121592574 1287.0085510904914 366.14698066609253Q1291.2035622711148 359.429293843067 1297.326011021214 355.3476613430009L1297.326011021214 355.3476613430009Q1298.3464191462306 354.72407859993524 1299.1400699101323 354.72407859993524L1299.1400699101323 354.72407859993524Q1300.7840607782146 354.72407859993524 1302.0028815942064 356.25469078746Q1303.2217024101983 357.7853029749848 1303.2217024101983 359.62770653404243L1303.2217024101983 359.62770653404243Q1303.2217024101983 361.04494004100985 1302.2012942851818 362.68893090909205L1302.2012942851818 362.68893090909205Q1301.6060562122557 363.5109263431331 1298.3464191462306 367.79097153417473Q1295.0584374100663 372.0710167252163 1290.579979528049 378.3068441558729Q1286.1015216460323 384.51432691639013 1281.197893711925 391.260358409555L1281.197893711925 391.260358409555L1300.7840607782146 391.260358409555Q1302.6264643372722 391.260358409555 1303.448459771313 392.39414521512896Q1304.242110535215 393.4995873505635 1304.242110535215 394.7184081665555L1304.242110535215 394.7184081665555Q1304.242110535215 396.16398634366226 1303.448459771313 397.26942847909686Q1302.6264643372722 398.40321528467075 1300.7840607782146 398.40321528467075L1300.7840607782146 398.40321528467075L1276.2942657778176 398.40321528467075L1274.4518622187602 401.26602696874494Q1272.6094586597023 403.9020812917043 1269.0380302221447 409.8261173508281Q1265.4666017845866 415.75015340995185 1261.498347965078 422.8930102850676Q1257.5300941455694 430.03586716018333 1254.7523164719132 436.6685199727908Q1252.0028834683962 443.30117278539825 1252.0028834683962 447.58121797643986L1252.0028834683962 447.58121797643986Q1252.0028834683962 452.68325860152254 1256.2829286594379 452.68325860152254L1256.2829286594379 452.68325860152254Q1259.7693230865775 452.68325860152254 1266.798801281136 449.3102428549401Q1273.8566241458338 445.965571778497 1280.7727236598348 440.0415357193732L1280.7727236598348 440.0415357193732Q1284.8543561599008 436.55514129223343 1288.3407505870405 432.70026615328203Q1291.7988003440412 428.81704634419134 1294.8600247190907 425.5574092781663L1294.8600247190907 425.5574092781663Q1295.6820201531318 424.5370011531498 1296.9008409691237 424.5370011531498L1296.9008409691237 424.5370011531498Q1297.9212490941404 424.5370011531498 1298.856623208739 425.6424432885844Q1299.7636526531978 426.7762300941583 1299.7636526531978 428.39187629210113L1299.7636526531978 428.39187629210113Q1299.7636526531978 430.23427985115876 1298.7432445281815 431.45310066715075L1298.7432445281815 431.45310066715075Q1295.6820201531318 435.76149052833165 1290.2681881565163 440.94856516383237Q1284.8543561599008 446.16398446947244 1280.7727236598348 449.22520884452206L1280.7727236598348 449.22520884452206Q1273.0346287117927 454.92248754253103 1264.0493682776194 457.78529922660516L1264.0493682776194 457.78529922660516Q1258.5505022705856 459.6277027856628 1254.2421124094049 459.6277027856628ZM1298.3464191462306 458.6072946606463L1298.3464191462306 458.6072946606463Q1292.620795778082 458.6072946606463 1289.8713627745656 455.23427891406385Q1287.1219297710486 451.8612631674814 1287.1219297710486 446.75922254239873L1287.1219297710486 446.75922254239873Q1287.1219297710486 441.06194384438976 1290.466600847492 433.40888290676577Q1293.8396165940742 425.7558219691417 1299.366827271247 417.5925569690095Q1304.8656932782806 409.42929196887724 1311.498346090888 402.3714691041795Q1318.1309989034955 395.34199090962113 1324.8770303966603 390.9485670380222Q1331.5947172196861 386.55514316642325 1337.3203405878344 386.55514316642325L1337.3203405878344 386.55514316642325Q1341.203560396925 386.55514316642325 1344.8600228449009 387.68892997199714Q1348.5448299630161 388.8227167775711 1350.8974375845821 392.08235384359614Q1353.2217005360085 395.34199090962113 1353.2217005360085 401.6628523506958L1353.2217005360085 401.6628523506958Q1353.2217005360085 403.9020812917043 1352.0028797200166 404.92248941672085Q1350.7840589040247 405.94289754173735 1349.7636507790082 405.94289754173735L1349.7636507790082 405.94289754173735Q1347.5244218379996 405.94289754173735 1347.5244218379996 404.3272513437945L1347.5244218379996 404.3272513437945Q1346.5040137129831 397.7796325416051 1343.3294106573762 395.73881629157205Q1340.1831522719085 393.698000041539 1337.3203405878344 393.698000041539L1337.3203405878344 393.698000041539Q1333.2387080877681 393.698000041539 1327.7114974105953 397.7796325416051Q1322.2126314035618 401.86126504167123 1316.4870080354135 408.21047115288525Q1310.7897293374044 414.53133259395986 1305.7727227227397 421.75922347949364Q1300.7840607782146 429.01545903516677 1297.7228364031648 435.64811184777426Q1294.661612028115 442.28076466038175 1294.661612028115 446.5608098514233L1294.661612028115 446.5608098514233Q1294.661612028115 448.60162610145636 1295.370228781599 450.24561696953856Q1296.0788455350826 451.8612631674814 1297.7228364031648 451.8612631674814L1297.7228364031648 451.8612631674814Q1300.7840607782146 451.8612631674814 1305.6876887123217 448.60162610145636Q1310.5913166464288 445.3419890354313 1316.20356133402 440.1265697297913Q1321.8158060216108 434.9394950942906 1327.3146720286445 429.2138717261422Q1332.813538035678 423.51659302813323 1337.3203405878344 418.41455240305055Q1341.7987984698511 413.31251177796787 1344.2647847719745 410.2512874029183L1344.2647847719745 410.2512874029183Q1345.4836055879666 408.4088838438607 1347.3260091470243 408.4088838438607L1347.3260091470243 408.4088838438607Q1348.7432426539917 408.4088838438607 1349.9620634699836 409.42929196887724Q1351.1808842859755 410.44970009389374 1351.1808842859755 412.0653462918366L1351.1808842859755 412.0653462918366Q1351.1808842859755 412.88734172587766 1350.5856462130491 413.9077498508942L1350.5856462130491 413.9077498508942Q1349.1400680359425 416.1469787919027 1347.2126304664666 420.22861129196883Q1345.285192896991 424.310243792035 1343.3294106573762 429.01545903516677Q1341.4019730879004 433.7206742782986 1340.0697735913511 437.6889280978073Q1338.7375740948019 441.65718191731605 1338.7375740948019 443.69799816734917L1338.7375740948019 443.69799816734917Q1338.7375740948019 445.73881441738223 1340.1831522719085 445.73881441738223L1340.1831522719085 445.73881441738223Q1341.203560396925 445.73881441738223 1342.7341725844499 444.71840629236567Q1344.2647847719745 443.69799816734917 1345.4836055879666 442.9043474034474L1345.4836055879666 442.9043474034474Q1350.3872335220738 438.82271490338127 1354.8656914040907 434.23087834080684Q1359.344149286108 429.63904177823247 1363.0289564042232 425.5574092781663L1363.0289564042232 425.5574092781663Q1363.850951838264 424.5370011531498 1365.0697726542562 424.5370011531498L1365.0697726542562 424.5370011531498Q1366.0901807792727 424.5370011531498 1366.997210223732 425.6424432885844Q1367.9325843383303 426.7762300941583 1367.9325843383303 428.39187629210113L1367.9325843383303 428.39187629210113Q1367.9325843383303 430.23427985115876 1366.9121762133136 431.45310066715075L1366.9121762133136 431.45310066715075Q1363.6525391472887 435.76149052833165 1358.3237411610912 440.94856516383237Q1353.023287845033 446.16398446947244 1348.941655344967 449.22520884452206L1348.941655344967 449.22520884452206Q1346.3056010220075 451.0676124035797 1342.7341725844499 452.7966372820799Q1339.1627441468918 454.52566216058017 1335.8747624107275 454.52566216058017L1335.8747624107275 454.52566216058017Q1333.4371207787435 454.52566216058017 1331.7931299106613 452.99504997305536Q1330.1774837127186 451.46443778553055 1330.1774837127186 447.58121797643986L1330.1774837127186 447.58121797643986Q1330.1774837127186 444.51999360139024 1331.1978918377351 440.63677379229955Q1332.2182999627516 436.78189865334815 1333.6355334697191 432.70026615328203L1333.6355334697191 432.70026615328203Q1327.93825477171 438.82271490338127 1321.3906359695206 444.71840629236567Q1314.8713618374704 450.6424423514894 1308.8339470977894 454.63904084113756Q1302.8248770282476 458.6072946606463 1298.3464191462306 458.6072946606463ZM1396.5040118387933 456.3680657196378L1396.5040118387933 456.3680657196378Q1392.819204720678 456.3680657196378 1390.4665970991123 454.3272494696047Q1388.1423341476857 452.2864332195716 1388.1423341476857 448.60162610145636L1388.1423341476857 448.60162610145636Q1388.1423341476857 440.8635311534143 1391.997209286637 432.98371285467556Q1395.8804290957278 425.1322392260761 1400.897435710392 417.4791782884521Q1405.8860976549174 409.8261173508281 1409.1457347209425 403.306843218778L1409.1457347209425 403.306843218778Q1405.8860976549174 405.5460721597865 1401.8044651548514 406.56648028480305Q1397.7228326547852 407.58688840981955 1393.8396128456943 407.58688840981955L1393.8396128456943 407.58688840981955Q1388.3407468386608 407.58688840981955 1385.2795224636116 406.16965490285213L1385.2795224636116 406.16965490285213Q1381.3963026545207 412.88734172587766 1376.294262029438 419.7184072294606Q1371.1922214043555 426.57781740318285 1366.4019721508057 432.0766834102164Q1361.6117228972557 437.57554941724993 1358.3237411610912 440.4383611013241L1358.3237411610912 440.4383611013241Q1356.906507654124 441.65718191731605 1355.4892741471565 441.65718191731605L1355.4892741471565 441.65718191731605Q1354.0436959700496 441.65718191731605 1353.023287845033 440.63677379229955Q1352.0028797200166 439.616365667283 1352.0028797200166 438.39754485129106L1352.0028797200166 438.39754485129106Q1352.0028797200166 437.3771367262745 1352.8248751540577 436.55514129223343L1352.8248751540577 436.55514129223343Q1356.509682272173 432.70026615328203 1361.4983442166983 426.57781740318285Q1366.4870061612237 420.4553686530836 1371.504012775888 413.51092446894336Q1376.4926747204136 406.56648028480305 1379.7523117864384 400.64244422567924L1379.7523117864384 400.64244422567924Q1379.5538990954633 396.5608117256131 1380.8860985920123 391.45877110053044Q1382.2182980885618 386.35673047544776 1384.5709057101276 381.67985990245535Q1386.8951686615542 376.97464465932353 1389.7579803456283 373.8000416037165Q1392.6207920297027 370.6537832182489 1395.6820164047522 370.6537832182489L1395.6820164047522 370.6537832182489Q1398.941653470777 370.6537832182489 1398.941653470777 374.5370030273396L1398.941653470777 374.5370030273396Q1398.941653470777 377.79664009336466 1397.0142159013017 382.8986807184473Q1395.0584336616864 388.00072134352996 1392.5074133491453 392.7909705970798Q1389.956393036604 397.5812198506296 1388.1423341476857 400.64244422567924L1388.1423341476857 400.64244422567924Q1390.778388470645 401.46443965972037 1393.6412001547192 401.46443965972037L1393.6412001547192 401.46443965972037Q1398.5448280888263 401.46443965972037 1402.2012905368024 399.5370020902447Q1405.8860976549174 397.5812198506296 1408.7489093389918 395.653782281154Q1411.611721023066 393.698000041539 1413.652537273099 393.698000041539L1413.652537273099 393.698000041539Q1416.2885915960583 393.698000041539 1417.2239657106566 395.0301995380883Q1418.1309951551161 396.3623990346377 1418.1309951551161 398.40321528467075L1418.1309951551161 398.40321528467075Q1418.1309951551161 402.28643509376144 1416.090178905083 406.87827165633587Q1414.04936265505 411.47010821891024 1413.0289545300334 412.68892903490223L1413.0289545300334 412.68892903490223Q1411.611721023066 414.9281579759107 1408.7489093389918 419.3215818475097Q1405.8860976549174 423.71500571910866 1403.0232859708435 428.6186336532159Q1400.1604742867692 433.4939169171838 1398.346415397851 438.0007194693402L1398.346415397851 438.0007194693402Q1397.5244199638098 440.2399484103487 1396.815803210326 442.59255603191457Q1396.078841786703 444.94516365348045 1396.078841786703 446.5608098514233L1396.078841786703 446.5608098514233Q1396.078841786703 449.22520884452206 1398.346415397851 449.22520884452206L1398.346415397851 449.22520884452206Q1400.387231647884 449.22520884452206 1404.2421067868354 447.18439259448894L1404.2421067868354 447.18439259448894Q1409.1457347209425 444.51999360139024 1413.3407459015662 440.3533270909061Q1417.5074124120501 436.1583159102825 1420.5686367870999 433.09709153523295L1420.5686367870999 433.09709153523295Q1420.7953941482147 432.89867884425746 1422.524419026715 431.05627528519983Q1424.2534439052151 429.2138717261422 1425.9824687837154 427.37146816708463Q1427.7114936622156 425.5574092781663 1427.7114936622156 425.5574092781663L1427.7114936622156 425.5574092781663Q1428.5334890962567 424.5370011531498 1429.7523099122486 424.5370011531498L1429.7523099122486 424.5370011531498Q1430.7727180372653 424.5370011531498 1431.7080921518636 425.6424432885844Q1432.6151215963228 426.7762300941583 1432.6151215963228 428.39187629210113L1432.6151215963228 428.39187629210113Q1432.6151215963228 430.23427985115876 1431.5947134713065 431.45310066715075L1431.5947134713065 431.45310066715075Q1428.5334890962567 435.76149052833165 1423.2330357801984 440.8635311534143Q1417.9325824641405 445.965571778497 1413.8509499640745 449.22520884452206L1413.8509499640745 449.22520884452206Q1409.570904773033 452.48484591054705 1405.1774809014337 454.4122834800228Q1400.784057029835 456.3680657196378 1396.5040118387933 456.3680657196378ZM1466.7137597739588 394.1231700936292L1466.7137597739588 394.1231700936292Q1464.2477734718354 394.1231700936292 1462.3203359023598 392.39414521512896Q1460.3645536627446 390.63677566648937 1460.3645536627446 388.00072134352996L1460.3645536627446 388.00072134352996Q1460.3645536627446 385.13790965945583 1462.2069572218024 383.2955061003982Q1464.04936078086 381.45310254134057 1466.7137597739588 381.45310254134057L1466.7137597739588 381.45310254134057Q1469.5482267878936 381.45310254134057 1471.3906303469512 383.2955061003982Q1473.233033906009 385.13790965945583 1473.233033906009 388.00072134352996L1473.233033906009 388.00072134352996Q1473.233033906009 390.63677566648937 1471.3055963365332 392.39414521512896Q1469.3498140969182 394.1231700936292 1466.7137597739588 394.1231700936292ZM1436.4983414054136 455.34765759462124L1436.4983414054136 455.34765759462124Q1433.8339424123146 455.34765759462124 1432.218296214372 453.81704540709643Q1430.5743053462897 452.2864332195716 1430.5743053462897 448.8000387924318L1430.5743053462897 448.8000387924318Q1430.5743053462897 444.51999360139024 1432.6151215963228 438.31251084087296Q1434.655937846356 432.0766834102164 1437.915574912381 425.4440305976089Q1441.2035566485456 418.81137778500147 1444.9733977770788 413.1991330974105Q1448.743238905612 407.58688840981955 1452.2012886626126 404.3272513437945L1452.2012886626126 404.3272513437945Q1453.6468668397192 402.8816731666878 1455.6876830897522 402.8816731666878L1455.6876830897522 402.8816731666878Q1457.3033292876953 402.8816731666878 1458.5504947738266 403.70366860072886Q1459.7693155898185 404.52566403477 1459.7693155898185 405.7444848507619L1459.7693155898185 405.7444848507619Q1459.7693155898185 406.7648929757785 1458.748907464802 407.785301100795L1458.748907464802 407.785301100795Q1457.3033292876953 409.23087927790175 1455.177479027244 412.3771376633694Q1453.0232840966537 415.5517407189764 1450.9824678466205 418.92475646555886Q1448.9416515965877 422.26942754200195 1447.921243471571 424.5370011531498L1447.921243471571 424.5370011531498Q1446.078839912513 428.39187629210113 1443.8396109715047 433.2955042262084Q1441.6003820304963 438.19913216031557 1440.5799739054796 441.2603565353652L1440.5799739054796 441.2603565353652Q1439.956391162414 443.30117278539825 1439.956391162414 444.3215809104148L1439.956391162414 444.3215809104148Q1439.956391162414 446.5608098514233 1441.6003820304963 446.5608098514233L1441.6003820304963 446.5608098514233Q1443.0176155374638 446.5608098514233 1444.8600190965212 445.2286103548739Q1446.702422655579 443.92475552846395 1448.1196561625463 442.9043474034474L1448.1196561625463 442.9043474034474Q1453.221696787629 438.82271490338127 1457.615120659228 434.23087834080684Q1462.0085445308268 429.63904177823247 1465.693351648942 425.5574092781663L1465.693351648942 425.5574092781663Q1466.487002412844 424.5370011531498 1467.734167898975 424.5370011531498L1467.734167898975 424.5370011531498Q1468.7545760239918 424.5370011531498 1469.661605468451 425.6424432885844Q1470.56863491291 426.7762300941583 1470.56863491291 428.39187629210113L1470.56863491291 428.39187629210113Q1470.56863491291 430.23427985115876 1469.5482267878936 431.45310066715075L1469.5482267878936 431.45310066715075Q1466.487002412844 435.76149052833165 1461.1015150863677 440.94856516383237Q1455.6876830897522 446.16398446947244 1451.6060505896862 449.22520884452206L1451.6060505896862 449.22520884452206Q1448.9416515965877 451.2660250945551 1444.5482277249885 453.3068413445882Q1440.1831485235289 455.34765759462124 1436.4983414054136 455.34765759462124ZM1474.451854722001 461.0449362926302L1474.451854722001 461.0449362926302Q1467.5074105378603 461.0449362926302 1464.6729435239256 457.0766824731215Q1461.8101318398515 453.10842865361275 1461.8101318398515 447.18439259448894L1461.8101318398515 447.18439259448894Q1461.8101318398515 442.28076466038175 1463.3407440273763 436.47010728181533Q1464.871356214901 430.65944990324897 1467.308997846885 424.93382653510065L1467.308997846885 424.93382653510065Q1467.5074105378603 416.96897422594384 1471.702421718484 409.23087927790175Q1475.8974328991076 401.46443965972037 1483.1253237846413 396.3623990346377Q1490.3815593403144 391.260358409555 1500.1604705383895 391.260358409555L1500.1604705383895 391.260358409555Q1509.7693137156284 391.260358409555 1513.5391548441617 396.75922441658855Q1517.3089959726951 402.28643509376144 1517.3089959726951 409.8261173508281L1517.3089959726951 409.8261173508281Q1517.3089959726951 414.33291990298443 1516.2885878476786 418.92475646555886Q1515.2681797226624 423.51659302813323 1513.6525335247193 427.59822552819935L1513.6525335247193 427.59822552819935Q1512.008542656637 431.6798580282655 1509.5709010246533 435.8465245387497Q1507.1049147225299 440.0415357193732 1504.0436903474804 444.1231682194394L1504.0436903474804 444.1231682194394Q1510.1661390975796 443.1027600944228 1514.757975660154 440.1265697297913Q1519.3498122227284 437.17872403529907 1524.0550274658601 431.87827071924096Q1528.7318980388527 426.57781740318285 1535.0811041500665 418.41455240305055L1535.0811041500665 418.41455240305055Q1536.2999249660586 416.96897422594384 1537.717158473026 416.96897422594384L1537.717158473026 416.96897422594384Q1539.361149341108 416.96897422594384 1540.4665914765426 417.98938235096034Q1541.6003782821167 419.0097904759769 1541.6003782821167 420.6537813440591L1541.6003782821167 420.6537813440591Q1541.6003782821167 421.87260216005103 1540.7783828480756 422.8930102850676L1540.7783828480756 422.8930102850676Q1534.8543467889517 431.05627528519983 1528.84527671941 437.57554941724993Q1522.8362066498682 444.1231682194394 1515.2681797226624 447.7796306674153Q1507.7284974655954 451.46443778553055 1497.09924616334 451.46443778553055L1497.09924616334 451.46443778553055Q1492.223962899372 455.7444829765721 1486.4983395312238 458.40888196967086Q1480.7727161630755 461.0449362926302 1474.451854722001 461.0449362926302ZM1486.2999268402482 408.21047115288525L1486.2999268402482 408.21047115288525Q1483.8339405381248 410.02453004180353 1480.3758907811248 415.5517407189764Q1476.9178410241238 421.05060672600996 1474.0550293400497 427.59822552819935L1474.0550293400497 427.59822552819935Q1474.451854722001 433.919086969274 1479.2421039755507 438.9077489137993Q1484.0606978992398 443.92475552846395 1494.0380217882903 444.51999360139024L1494.0380217882903 444.51999360139024Q1501.4076360245208 437.3771367262745 1505.886093906538 427.68325953861745Q1510.364551788555 417.98938235096034 1510.364551788555 410.2512874029183L1510.364551788555 410.2512874029183Q1510.364551788555 404.92248941672085 1507.926910156571 401.6628523506958Q1505.4892685245873 398.40321528467075 1500.1604705383895 398.40321528467075L1500.1604705383895 398.40321528467075Q1496.5040080904137 398.40321528467075 1493.017613663274 399.62203610066274Q1489.5595639062735 400.84085691665473 1486.6967522221994 402.8816731666878L1486.6967522221994 402.8816731666878Q1487.7171603472157 403.9020812917043 1487.7171603472157 405.34765946881106L1487.7171603472157 405.34765946881106Q1487.7171603472157 406.9633056667539 1486.2999268402482 408.21047115288525ZM1468.9529887149672 446.75922254239873L1468.9529887149672 446.75922254239873Q1468.9529887149672 450.0472042785632 1470.2851882115165 451.9746418480388Q1471.5890430379266 453.90207941751447 1474.451854722001 453.90207941751447L1474.451854722001 453.90207941751447Q1480.3758907811248 453.90207941751447 1486.4983395312238 450.24561696953856L1486.4983395312238 450.24561696953856Q1480.5743034721 448.8000387924318 1476.492670972034 445.6537804069642Q1472.4110384719677 442.4791773513572 1470.171809530959 438.39754485129106L1470.171809530959 438.39754485129106Q1468.9529887149672 443.30117278539825 1468.9529887149672 446.75922254239873Z " fill="#f5f5f5" transform="matrix(0.5675919413030115,0,0,0.5675919413030116,0,67.78818706002947)"/></g></svg>